<?xml version="1.0" encoding="utf-8"?>
<!-- Generator: Adobe Illustrator 27.5.0, SVG Export Plug-In . SVG Version: 6.00 Build 0)  -->
<svg version="1.1" xmlns="http://www.w3.org/2000/svg" xmlns:xlink="http://www.w3.org/1999/xlink" x="0px" y="0px"
	 viewBox="0 0 750 500" style="enable-background:new 0 0 750 500;" xml:space="preserve">
<g id="BACKGROUND">
	<rect style="fill:#FFFFFF;" width="750" height="500"/>
</g>
<g id="OBJECTS">
	<path style="fill:#EEF6FF;" d="M574.97,413.175c6.122-0.503,12.208-1.427,18.201-2.778c18.391-4.145,36.224-12.499,49.226-26.149
		c10.768-11.304,17.795-25.763,22.172-40.749c14.712-50.364-0.079-105.933-29.037-149.687
		c-28.958-43.754-70.756-77.358-113.835-107.313c-48.295-33.581-102.103-64.462-160.907-65.942
		c-16.725-0.421-33.811,1.675-48.96,8.779c-22.382,10.497-30.783,32.751-37.111,55.019c-7.411,26.074-17.536,48.182-39.395,65.411
		c-32.017,25.237-77.206,25.469-106.585,54.299c-22.687,22.264-28.782,58.469-18.315,88.483
		c10.467,30.014,35.673,53.595,64.892,66.111c29.219,12.516,62.09,14.737,93.625,10.741c49.252-6.241,98.887-27.059,146.933-14.555
		c37.1,9.655,66.708,37.874,102.766,50.894C536.591,412.221,555.951,414.736,574.97,413.175z"/>
	<g>
		<path style="fill:none;stroke:#898050;stroke-width:1.5;stroke-miterlimit:10;" d="M199.218,139.614
			c-7.622,19.759-11.522,40.742-14.636,61.69c-4.361,29.333-7.261,58.883-8.685,88.504"/>
		<path style="fill:none;stroke:#898050;stroke-width:1.5;stroke-miterlimit:10;" d="M192.278,90.149
			c-13.097,30.502-13.486,48.423-17.881,81.789c-4.395,33.366-8.178,118.506-8.178,118.506"/>
		<path style="fill:none;stroke:#898050;stroke-width:1.5;stroke-miterlimit:10;" d="M114.073,140.561
			c25.738,33.552,31.614,86.976,39.676,132.792c1.721,9.779,3.543,19.523,5.318,29.284"/>
		<path style="fill:none;stroke:#898050;stroke-width:1.5;stroke-miterlimit:10;" d="M126.861,237.254
			c15.799,22.475,24.094,46.641,24.315,70.838"/>
		<path style="fill:none;stroke:#898050;stroke-width:1.5;stroke-miterlimit:10;" d="M144.415,107.572
			c13.707,16.643,13.038,37.37,14.857,56.543c2.439,25.721,2.942,51.584,3.266,77.42c0.388,31.007,0.52,62.017,0.396,93.026"/>
		<polygon style="fill:#F9EFCF;" points="91.428,287.237 103.085,470.878 198.844,470.878 210.501,287.237 		"/>
		<g>
			
				<line style="fill:none;stroke:#EFE3BF;stroke-width:3;stroke-miterlimit:10;" x1="103.644" y1="287.237" x2="112.167" y2="470.45"/>
			
				<line style="fill:none;stroke:#EFE3BF;stroke-width:3;stroke-miterlimit:10;" x1="120.398" y1="287.237" x2="125.726" y2="470.45"/>
			
				<line style="fill:none;stroke:#EFE3BF;stroke-width:3;stroke-miterlimit:10;" x1="140.485" y1="287.237" x2="142.617" y2="470.45"/>
			
				<line style="fill:none;stroke:#EFE3BF;stroke-width:3;stroke-miterlimit:10;" x1="198.285" y1="287.237" x2="189.762" y2="470.45"/>
			
				<line style="fill:none;stroke:#EFE3BF;stroke-width:3;stroke-miterlimit:10;" x1="181.531" y1="287.237" x2="176.204" y2="470.45"/>
			
				<line style="fill:none;stroke:#EFE3BF;stroke-width:3;stroke-miterlimit:10;" x1="161.444" y1="287.237" x2="159.311" y2="470.45"/>
		</g>
		<path style="fill:#C1B376;" d="M169.015,92.539c-3.356-4.385-7.911-7.711-12.681-10.491c-1.195-0.697-2.411-1.351-3.635-1.986
			c0.563,2.641,0.83,5.337,0.459,8c-0.186,1.332-0.607,2.759-1.718,3.516c-0.917,0.625-2.126,0.654-3.211,0.418
			c-2.594-0.566-4.729-2.487-6.143-4.734c-1.414-2.247-2.206-4.82-2.982-7.359c-0.63-2.059-1.259-4.118-1.889-6.176
			c-2.882-0.907-5.805-1.697-8.757-2.386c0.038,0.735,0.033,1.472-0.025,2.206c-0.103,1.304-0.436,2.725-1.497,3.491
			c-1.275,0.921-3.06,0.524-4.498-0.112c-1.862-0.823-3.573-1.987-5.023-3.416c-1.31-1.291-2.414-2.951-2.911-4.7
			c-1.809-0.244-3.619-0.464-5.429-0.653c-4.595-0.48-27.65-3.023-27.65-3.023s6.444,11.302,12.329,26.249
			c4.926-0.126,9.884,0.931,14.308,3.106c1.676,0.824,3.309,1.831,4.486,3.281c0.4,0.493,0.757,1.1,0.651,1.726
			c-0.179,1.049-1.459,1.444-2.515,1.578c-4.475,0.565-9.049,0.242-13.417-0.881c2.316,5.409,5.043,10.619,8.932,14.999
			c5.532,6.232,13.693,10.658,21.982,9.803c8.452-0.871,15.968-7.621,17.739-15.932c5.406,0.525,10.854,0.61,16.273,0.254
			c2.834-0.186,5.883-0.59,7.948-2.539C173.939,103.188,172.192,96.691,169.015,92.539z M124.582,112.006
			c-3.076,0.012-11.718-1.82-10.368-6.398c0.899-3.047,6.129-4.896,8.933-5.106C131.709,99.858,134.397,111.968,124.582,112.006z"/>
		<g>
			<path style="fill:#998C53;" d="M149.743,150.971c-1.652-6.213-7.198-10.681-13.073-13.292
				c-7.859-3.493-16.885-4.295-25.236-2.339c-0.752-4.994-3.607-9.676-7.798-12.514c-5.711-3.867-13.31-4.17-19.884-2.087
				c-6.575,2.084-12.269,6.3-17.359,10.953c-2.26,2.066-4.412,4.224-6.476,6.455c2.72-0.031,5.429,0.279,8.029,1.071
				c1.105,0.337,2.322,0.899,2.637,2.01c0.392,1.385-0.841,2.667-2.017,3.497c-5.712,4.028-12.551,5.557-19.486,6.949
				c-12.001,17.171-20.414,37.135-28.357,56.699c7.345-2.281,14.796-4.226,22.294-6.016c6.205-8.382,13.285-16.366,22.299-21.596
				c1.647-0.956,3.395-1.828,5.285-2.067c1.889-0.239,3.961,0.252,5.235,1.668c1.025,1.14,1.417,2.724,1.495,4.256
				c0.197,3.831-1.331,7.522-3.342,10.821c18.734-4.185,37.28-8.859,54.755-16.704c5.778-2.594,11.537-5.62,15.802-10.303
				C148.81,163.748,151.37,157.092,149.743,150.971z M79.696,136.717c0.143-3.454,8.423-4.752,11.081-5.053
				c2.993-0.339,9.268,2.705,6.833,6.542c-0.322,0.508-0.805,0.895-1.323,1.201c-1.916,1.132-4.261,1.203-6.485,1.137
				c-2.776-0.083-5.612-0.35-8.134-1.51C80.689,138.582,79.651,137.794,79.696,136.717z M99.289,176.698
				c-1.753,3.413-5.111,5.958-8.871,6.723c-1.867,0.38-4.024,0.256-5.376-1.087c-1.528-1.516-1.482-3.99-1.046-6.098
				c0.298-1.439,0.752-2.897,1.708-4.014c2.783-3.252,12.186-4.584,14.148,0.343C100.382,173.898,99.944,175.422,99.289,176.698z"/>
			<path style="fill:none;stroke:#605534;stroke-width:1.5;stroke-miterlimit:10;" d="M20.722,208.372
				c0,0,44.788-50.582,90.712-73.033"/>
		</g>
		<g>
			<path style="fill:#998C53;" d="M194.447,102.886c-0.58-0.373-1.169-0.825-1.386-1.479c-0.435-1.311,0.815-2.561,2.033-3.212
				c3.98-2.129,8.766-1.975,13.244-1.416c4.622,0.577,9.194,1.536,13.664,2.848c9.192-5.282,18.444-8.901,28.846-11.583
				C234.141,77.227,213.18,74.13,204.86,72.87c-4.417-0.669-8.945-1.028-13.337-0.21c-0.757,0.141-1.529,0.349-2.283,0.622
				c-3.125,1.13-5.933,3.372-5.965,6.561c-0.039,3.955,4.091,6.468,7.669,8.152c-3.577,0.819-6.991,2.346-9.986,4.466
				c-3.865,2.735-7.228,7.143-6.447,11.813c0.619,3.701,3.764,6.578,7.26,7.943c6.417,2.506,13.612,1.993,19.844-0.637
				c3.321-1.401,6.433-3.216,9.488-5.137C205.261,106.455,199.295,106.011,194.447,102.886z M211.129,88.104
				c1.414-0.849,3.212-1.029,4.766-0.476l-0.949-0.318c0.918,0.136,1.862,0.28,2.664,0.748c0.802,0.468,1.438,1.342,1.344,2.265
				c-0.135,1.321-1.587,2.064-2.883,2.355c-1.017,0.229-2.061,0.332-3.103,0.307c-1.413-0.034-3.091-0.539-3.45-1.906
				C209.21,89.908,210.091,88.727,211.129,88.104z"/>
			<path style="fill:none;stroke:#605534;stroke-width:1.5;stroke-miterlimit:10;" d="M190.944,87.995
				c0,0,27.939-6.138,59.904,0.048"/>
		</g>
		<path style="fill:none;stroke:#898050;stroke-width:1.5;stroke-miterlimit:10;" d="M81.423,65.134
			c0,0,37.602,15.113,64.677,44.741"/>
		<path style="fill:#C1B376;" d="M204.711,185.663c2.69,0.442,5.313,1.184,7.763,2.186c6.507,2.661,11.83,7.049,15.701,12.098
			c4.082,5.324,7.268,10.621,10.17,16.911c-1.996-2.094-4.77-3.682-7.854-4.497c-0.671-0.177-1.373-0.32-2.075-0.269
			c-2.451,0.179-3.768,2.734-3.017,4.656c0.751,1.922,2.844,3.259,4.912,4.352c2.967,1.569,6.777,2.717,10.058,3.783
			c2.026,5.039,3.579,11.876,4.664,16.55c0.756,3.256,1.512,6.511,2.271,9.767c-5.668-1.708-11.45-3.189-17.233-4.609
			c-11.591-2.847-23.538-4.407-35.006-7.57c-6.308-1.74-12.553-3.261-18.34-6.049c-8.876-4.276-15.333-10.783-14.445-17.613
			c0.905-6.965,10.028-13.407,21.531-15.205c-0.774-3.681-2.385-7.101,0.7-10.497c1.626-1.79,4.182-2.865,6.781-3.528
			C195.622,185.024,200.257,184.931,204.711,185.663z M181.068,221.51c1.785,2.73,8.778,9.523,12.842,6.171
			c2.704-2.23,1.607-7.733,0.191-10.316C189.778,209.48,175.372,212.799,181.068,221.51z"/>
		<path style="fill:none;stroke:#898050;stroke-width:1.5;stroke-miterlimit:10;" d="M247.304,251.2
			c0,0-22.404-30.198-64.631-51.162"/>
		<g>
			<path style="fill:#C1B376;" d="M166.081,250.418c-0.93-10.599-7.445-21.529-17.507-23.753
				c-11.981-2.648-23.088,4.623-23.088,4.623c-1.049-11.359-6.322-15.562-10.694-17.779c-8.922-4.525-24.265-4.715-32.327,2.337
				c-3.126,2.734-5.717,6.052-7.849,9.697c2.455-0.194,4.926-0.171,7.371,0.122c3.291,0.394,6.72,1.336,8.979,3.76
				c0.628,0.673,1.166,1.496,1.221,2.415c0.135,2.239-2.417,3.574-4.576,4.182c-6.004,1.69-12.213,2.338-18.461,2.587
				c-0.814,2.87-1.429,5.771-1.863,8.62c-1.318,8.652-1.233,17.443-1.144,26.186c0.168,16.589,0.388,33.505,5.545,49.16
				c0.221,0.672,0.49,1.392,1.075,1.763c0.763,0.484,1.753,0.195,2.607-0.105c5.935-2.089,11.869-4.178,17.804-6.267
				c17.3-6.09,34.913-12.346,49.637-23.593c6.804-5.197,12.946-11.476,17.271-18.986
				C164.411,267.878,166.84,259.072,166.081,250.418z M107.799,228.06c-1.431,0.337-2.93,0.268-4.382,0.036
				c-2.47-0.395-5.019-1.373-6.444-3.429c-0.559-0.805-0.905-1.92-0.374-2.744c0.563-0.872,1.784-0.969,2.821-0.918
				c2.999,0.148,6.996,0.539,9.574,2.227c0.74,0.485,1.443,1.179,1.528,2.059C110.656,226.7,109.176,227.736,107.799,228.06z
				 M150.464,272.864c-0.24,1.955-0.684,4.184-2.399,5.152c-1.013,0.571-2.264,0.55-3.394,0.276
				c-3.238-0.784-5.786-3.495-6.972-6.608c-1.372-3.601-2.271-13.272,2.581-14.848c4.549-1.478,9.247,3.523,10.17,7.448
				C151.107,267.083,150.814,270.009,150.464,272.864z"/>
			<path style="fill:none;stroke:#898050;stroke-width:1.5;stroke-miterlimit:10;" d="M72.766,324.339
				c0,0,17.551-54.336,52.721-93.05"/>
		</g>
		<g>
			<path style="fill:#998C53;" d="M114.723,296.961c-3.492,0.082-6.975,0.652-10.308,1.701c-1.087,0.342-8.532,2.736-8.519,3.975
				c-0.05-4.898-0.112-9.874-1.527-14.564c-1.414-4.69-4.391-9.14-8.844-11.182c-5.358-2.457-11.736-1.005-17.023,1.602
				c-9.962,4.913-17.76,14.937-22.354,24.908c-3.269,7.096-5.56,16.059-7.168,25.231c4.368-1.309,8.933-1.957,13.493-1.872
				c1.267,0.023,2.674,0.166,3.518,1.111c1.039,1.163,0.732,3.013-0.008,4.385c-1.876,3.478-5.764,5.277-9.39,6.845
				c-3.216,1.391-6.432,2.781-9.649,4.171c-1.868,17.399-1.725,32.234-1.725,32.234s22.762-6.117,46.339-16.764
				c1.074-6.46,2.387-12.879,3.955-19.237c0.978-3.965,2.19-8.141,5.23-10.867c1.653-1.483,4.09-2.433,6.107-1.503
				c2.354,1.086,3.025,4.079,3.201,6.665c0.378,5.539-0.201,11.132-1.644,16.493c10.673-5.988,20.361-12.893,26.779-20.553
				c3.674-4.386,6.743-9.895,8.194-15.446C136.695,301.617,125.508,296.708,114.723,296.961z M61.891,317.361
				c-2.713,0.853-5.772,1.159-8.324-0.098c-1.389-0.684-2.61-1.923-2.818-3.457c-0.179-1.327,0.431-2.666,1.337-3.652
				c0.906-0.986,2.083-1.676,3.257-2.321c3.692-2.03,10.392-4.671,13.956-0.83C73.904,311.966,65.702,316.163,61.891,317.361z"/>
			<path style="fill:none;stroke:#605534;stroke-width:1.5;stroke-miterlimit:10;" d="M35.219,375.508
				c0,0,28.232-50.072,60.677-72.871"/>
		</g>
		<g>
			<path style="fill:#998C53;" d="M245.019,139.686c-5.328-9.628-13.541-18.709-26.114-22.668c-3.162-0.996-6.63-1.651-10.197-1.332
				c-5.572,0.499-10.764,3.35-14.516,6.832c-2.372,2.201-4.257,4.649-5.952,7.171c-3.448-0.267-7.088-0.028-10.627,0.376
				c-7.546,0.862-15.635,2.632-20.953,7.2c-5.333,4.58-6.668,11.249-4.481,16.624c2.186,5.375,7.451,9.541,13.602,12.403
				c6.151,2.862,13.194,4.548,20.208,6.137c4.505,1.02,20.83,5.737,20.83,5.737s-5.905-6.145-7.043-8.501
				c-0.595-1.232-1.077-2.561-0.768-3.928c0.309-1.367,1.612-2.769,3.372-3.09c0.944-0.172,1.889-0.022,2.77,0.179
				c8.566,1.952,10.981,9.199,12.888,15.486c0.083,0.272,0.161,0.551,0.23,0.833c13.241,2.524,26.597,4.794,40.06,6.789
				C255.676,170.083,252.955,154.027,245.019,139.686z M202.28,151.091c0.18,1.255-0.034,2.765-1.414,3.599
				c-0.984,0.595-2.331,0.661-3.403,0.36c-1.072-0.301-1.91-0.918-2.631-1.58c-2.368-2.177-6.896-8.914-1.135-11.107
				C198.857,140.399,201.9,148.431,202.28,151.091z M235.144,141.4c0.985,2.778,1.322,5.509-2.928,6.027
				c-5.722,0.697-11.28-4.104-14.267-7.82c-4.804-5.977,5.491-6.699,10.169-5.342C231.806,135.335,234.046,138.303,235.144,141.4z"
				/>
			<path style="fill:none;stroke:#605534;stroke-width:1.5;stroke-miterlimit:10;" d="M188.241,129.69
				c18.091,6.511,57.853,36.633,70.087,56.245"/>
		</g>
	</g>
	<g>
		<g>
			<rect x="417.489" y="187.937" style="fill:#FFFFFF;" width="105.211" height="93.947"/>
			<polygon style="fill:#EEF6FF;" points="470.281,210.968 429.133,210.968 435.812,220.944 			"/>
			<line style="fill:none;stroke:#B9D0EA;stroke-miterlimit:10;" x1="422.315" y1="210.968" x2="486.022" y2="210.968"/>
			<line style="fill:none;stroke:#B9D0EA;stroke-miterlimit:10;" x1="440.698" y1="224.949" x2="509.232" y2="224.949"/>
			<line style="fill:none;stroke:#B9D0EA;stroke-miterlimit:10;" x1="430.732" y1="230.523" x2="499.266" y2="230.523"/>
			<line style="fill:none;stroke:#B9D0EA;stroke-miterlimit:10;" x1="496.526" y1="266.054" x2="522.597" y2="266.054"/>
			<line style="fill:none;stroke:#B9D0EA;stroke-miterlimit:10;" x1="493.477" y1="210.968" x2="522.699" y2="210.968"/>
			<polygon style="fill:#EEF6FF;" points="486.022,196.341 448.876,196.341 475.828,206.877 			"/>
			<line style="fill:none;stroke:#B9D0EA;stroke-miterlimit:10;" x1="417.489" y1="196.341" x2="522.699" y2="196.341"/>
		</g>
		<g>
			
				<ellipse transform="matrix(0.9984 -0.057 0.057 0.9984 -5.2724 24.9113)" style="fill:#F9D79B;" cx="434.018" cy="104.872" rx="10.189" ry="10.189"/>
			<polyline style="fill:none;stroke:#393F5B;stroke-width:1.5;stroke-miterlimit:10;" points="533.328,281.884 553.487,165.524 
				464.225,71.81 453.238,79.188 			"/>
			<g>
				<path style="fill:#EF9248;" d="M451.111,117.337l8.256-12.853c1.337-3.354,0.406-7.187-2.32-9.554l2.828-3.257
					c3.936-4.533,3.452-11.399-1.081-15.335v0c-4.533-3.936-11.399-3.452-15.335,1.081l-2.828,3.257
					c-2.726-2.367-6.652-2.751-9.785-0.957l-11.567,9.978L451.111,117.337z"/>
				<line style="fill:none;stroke:#231F20;stroke-miterlimit:10;" x1="440.63" y1="80.676" x2="456.897" y2="94.8"/>
			</g>
			<path style="fill:#393F5B;" d="M556.192,165.625c0,1.686-1.366,3.052-3.052,3.052c-1.686,0-3.052-1.367-3.052-3.052
				c0-1.686,1.366-3.052,3.052-3.052C554.826,162.573,556.192,163.939,556.192,165.625z"/>
			<path style="fill:#393F5B;" d="M467.335,71.81c0,1.686-1.366,3.052-3.052,3.052c-1.686,0-3.052-1.367-3.052-3.052
				c0-1.686,1.366-3.052,3.052-3.052C465.969,68.758,467.335,70.124,467.335,71.81z"/>
		</g>
		<g>
			<path style="fill:#F9BEBD;" d="M348.315,349.678H226.508l0,0c0-6.347,5.145-11.492,11.492-11.492h98.822
				C343.169,338.186,348.315,343.332,348.315,349.678L348.315,349.678z"/>
			<path style="fill:#F9BEBD;" d="M201.833,189.916L201.833,189.916l24.676,159.762h9.113l-22.642-150.88
				C211.789,193.601,207.165,189.916,201.833,189.916z"/>
			<polyline style="fill:none;stroke:#231F20;stroke-width:1.5;stroke-miterlimit:10;" points="212.348,470.878 226.889,349.867 
				347.772,349.867 362.313,470.878 			"/>
			<path style="fill:none;stroke:#231F20;stroke-miterlimit:10;" d="M226.77,349.735c1.133-4.075,3.595-7.768,6.92-10.382"/>
		</g>
		<g>
			<path style="fill:#FFD797;" d="M525.634,187.688c-4.292,0-7.771,3.479-7.771,7.771c0,4.292,3.479,7.771,7.771,7.771h43.104
				v-15.543H525.634z"/>
			<path style="fill:none;stroke:#292944;stroke-miterlimit:10;" d="M556.483,187.688c-3.104,0-5.621,3.479-5.621,7.771
				c0,4.292,2.517,7.771,5.621,7.771"/>
			<path style="fill:none;stroke:#292944;stroke-miterlimit:10;" d="M526.718,187.688c-3.104,0-5.621,3.479-5.621,7.771
				c0,4.292,2.517,7.771,5.621,7.771"/>
			<path style="fill:#F9C470;" d="M561.9,187.688c-4.292,0-7.771,3.479-7.771,7.771c0,4.292,3.479,7.771,7.771,7.771h28.61v-15.543
				H561.9z"/>
			<path style="fill:#FFFFFF;" d="M562.422,190.568c-2.701,0-4.891,2.19-4.891,4.891c0,2.701,2.19,4.891,4.891,4.891h28.089v-9.783
				H562.422z"/>
			<line style="fill:none;stroke:#292944;stroke-miterlimit:10;" x1="557.693" y1="197.406" x2="590.51" y2="197.406"/>
			<line style="fill:none;stroke:#292944;stroke-miterlimit:10;" x1="557.693" y1="193.865" x2="564.713" y2="193.865"/>
			<line style="fill:none;stroke:#292944;stroke-miterlimit:10;" x1="570.701" y1="193.865" x2="590.51" y2="193.865"/>
		</g>
		<g>
			<path style="fill:#BFC4E8;" d="M515.328,217.329c-11.004,0-19.925,8.921-19.925,19.925c0,11.004,8.921,19.925,19.925,19.925
				h81.229v-39.85H515.328z"/>
			<path style="fill:#9EA6CC;" d="M579.026,217.329c-11.004,0-19.925,8.921-19.925,19.925c0,11.004,8.921,19.925,19.925,19.925
				h29.032v-39.85H579.026z"/>
			<path style="fill:#FFFFFF;" d="M580.363,224.713c-6.926,0-12.541,5.615-12.541,12.541c0,6.926,5.615,12.541,12.541,12.541h27.695
				v-25.082H580.363z"/>
			<line style="fill:none;stroke:#292944;stroke-miterlimit:10;" x1="568.238" y1="242.245" x2="608.058" y2="242.245"/>
			<path style="fill:#D34A37;" d="M590.82,233.056c1.049,4.474,3.663,13.288,3.663,13.288l-10.686,0.349
				c0,0-1.798-8.946-3.048-13.332"/>
			<line style="fill:none;stroke:#292944;stroke-miterlimit:10;" x1="568.238" y1="233.167" x2="608.058" y2="233.167"/>
			<path style="fill:none;stroke:#292944;stroke-miterlimit:10;" d="M556.841,224.694c-6.683,8.223-6.422,19.241,0.654,27.548"/>
			<path style="fill:#A2ACDB;" d="M518.858,224.694h29.219c-6.683,8.223-6.422,19.241,0.654,27.548h-29.219
				C512.436,243.935,512.175,232.916,518.858,224.694z"/>
			<path style="fill:none;stroke:#292944;stroke-miterlimit:10;" d="M510.17,224.694c-6.683,8.223-6.422,19.241,0.654,27.548"/>
		</g>
		<g>
			<path style="fill:#FCD4D2;" d="M582.283,203.118c3.924,0,7.105,3.181,7.105,7.105s-3.181,7.106-7.105,7.106h-38.52v-14.211
				H582.283z"/>
			<path style="fill:#EDABA9;" d="M550.015,203.118c3.924,0,7.105,3.181,7.105,7.105s-3.181,7.106-7.105,7.106h-40.478v-14.211
				H550.015z"/>
			<path style="fill:#FFE2E1;" d="M549.538,205.751c2.47,0,4.472,2.002,4.472,4.472c0,2.47-2.002,4.472-4.472,4.472h-40.001v-8.945
				H549.538z"/>
			<line style="fill:none;stroke:#292944;stroke-miterlimit:10;" x1="553.862" y1="212.003" x2="509.537" y2="212.003"/>
			<line style="fill:none;stroke:#292944;stroke-miterlimit:10;" x1="553.862" y1="208.766" x2="509.537" y2="208.766"/>
			<path style="fill:none;stroke:#292944;stroke-miterlimit:10;" d="M557.926,205.744c2.383,2.932,2.29,6.862-0.233,9.824"/>
			<path style="fill:none;stroke:#292944;stroke-miterlimit:10;" d="M561.143,205.744c2.383,2.932,2.29,6.862-0.233,9.824"/>
			<path style="fill:none;stroke:#292944;stroke-miterlimit:10;" d="M582.732,205.744c2.383,2.932,2.29,6.862-0.233,9.824"/>
		</g>
		<g>
			<rect x="379.352" y="272.551" style="fill:#FFEED4;" width="126.183" height="8.31"/>
			<rect x="376.978" y="278.415" style="fill:#EF9248;" width="130.931" height="3.864"/>
			<line style="fill:none;stroke:#292944;stroke-miterlimit:10;" x1="505.535" y1="275.801" x2="379.352" y2="275.801"/>
		</g>
		<g>
			<g>
				<g>
					<polyline style="fill:#824229;" points="420.133,421.842 434.525,450.215 475.672,433.672 460.14,405.144 					"/>
					<path style="fill:#D86498;" d="M425.555,432.997l6.755,24.988l77.828-26.419c0,0-2.623-10.353-14.285-9.447
						c-16.172,1.257-27.234-3.378-27.234-3.378L425.555,432.997z"/>
					<line style="fill:none;stroke:#A53D71;stroke-miterlimit:10;" x1="430.68" y1="451.958" x2="506.973" y2="426.06"/>
					<path style="fill:none;stroke:#A53D71;stroke-miterlimit:10;" d="M427.533,440.315c0,0,10.521-0.888,19.219,6.187"/>
					<path style="fill:none;stroke:#A53D71;stroke-miterlimit:10;" d="M487.002,432.839c0,0-0.198-6.56,5.127-10.529"/>
					<line style="fill:none;stroke:#A53D71;stroke-miterlimit:10;" x1="472.461" y1="420.001" x2="463.072" y2="428.251"/>
					<line style="fill:none;stroke:#A53D71;stroke-miterlimit:10;" x1="479.12" y1="421.663" x2="469.731" y2="429.913"/>
				</g>
				<g>
					<polyline style="fill:#824229;" points="403.616,433.368 415.43,462.907 457.884,450.085 444.948,420.29 					"/>
					<path style="fill:#FD74AB;" d="M408.025,444.96l4.509,25.49l79.868-19.401c0,0-1.693-10.546-13.389-10.678
						c-16.219-0.184-26.826-5.784-26.826-5.784L408.025,444.96z"/>
					<line style="fill:none;stroke:#231F20;stroke-miterlimit:10;" x1="411.446" y1="464.302" x2="489.738" y2="445.284"/>
					<path style="fill:none;stroke:#231F20;stroke-miterlimit:10;" d="M409.345,452.426c0,0,10.559,0.05,18.593,7.87"/>
					<path style="fill:none;stroke:#231F20;stroke-miterlimit:10;" d="M469.244,450.262c0,0,0.385-6.552,6.042-10.032"/>
					<line style="fill:none;stroke:#231F20;stroke-miterlimit:10;" x1="455.9" y1="436.183" x2="445.815" y2="443.567"/>
					<line style="fill:none;stroke:#231F20;stroke-miterlimit:10;" x1="462.385" y1="438.43" x2="452.3" y2="445.813"/>
				</g>
				<g>
					<path style="fill:#5852A0;" d="M307.596,287.237c0,0,69.708,8.215,76.431,9.027c6.723,0.813,19.59,5.327,32.789,28.349
						c13.332,23.252,49.602,89.53,49.602,89.53l-65.483,23.141l-49.662-100.754l-91.816-3.25"/>
					<line style="fill:none;stroke:#292944;stroke-miterlimit:10;" x1="387.323" y1="409.671" x2="451.157" y2="386.344"/>
				</g>
				<path style="fill:#6C62B7;" d="M245.143,255.909l-4.146,11.008c0,0-13.76,27.977-10.377,46.18
					c2.89,15.547,15.492,25.09,28.809,25.09c10.493,0,89.351,0,89.351,0l32.643,105.639l68.284-14.8
					c0,0-43.761-97.075-48.773-106.069c-5.92-10.624-10.659-20.678-34.14-26.626c-23.481-5.948-59.223-12.026-59.223-12.026
					l0.069-9.68"/>
				<line style="fill:none;stroke:#292944;stroke-miterlimit:10;" x1="373.47" y1="418.09" x2="438.531" y2="403.973"/>
				<line style="fill:none;stroke:#292944;stroke-miterlimit:10;" x1="307.592" y1="281.375" x2="241.321" y2="266.054"/>
				<line style="fill:none;stroke:#292944;stroke-miterlimit:10;" x1="265.507" y1="261.85" x2="262.137" y2="272.551"/>
				<line style="fill:none;stroke:#292944;stroke-miterlimit:10;" x1="298.096" y1="281.884" x2="299.711" y2="271.829"/>
				<path style="fill:none;stroke:#292944;stroke-miterlimit:10;" d="M267.958,271.997c0,0-4.533,19.26-5.822,25.803
					c-1.288,6.543,3.247,16.652,22.409,18.745c17.451,1.906,53.75,6.488,65.638,7.997c2.389,0.303,5.257,3.035,6.99,7.709
					c1.032,2.782,40.596,108.275,40.596,108.275"/>
				<path style="fill:none;stroke:#292944;stroke-miterlimit:10;" d="M265.104,284.305c0,0,17.498-1.336,20.957-2.034
					c3.459-0.698,5.703-4.963,5.703-4.963"/>
			</g>
			<g>
				<polygon style="fill:#824229;" points="351.719,153.293 327.404,168.632 351.968,194.357 370.314,173.362 				"/>
				<path style="fill:#FD74AB;" d="M364.264,120.609c-3.503-3.774-8.032-4.792-12.891-5.328c-6.17-0.681-14.902-0.171-20.809,1.75
					c1.223,3.526,1.835,7.263,1.801,10.995c10.428-2.532,21.191-5.081,31.789-3.393"/>
				<path style="fill:#FD74AB;" d="M366.686,121.882c-0.074-3.218,0.333-5.555-1.884-9.302c-1.639-2.771-5.26-5.076-8.132-6.529
					c-3.257-1.648-9.867-3.668-9.867-3.668l-5.141,7.782c0,0,8.043,2.011,11.826,3.678c3.783,1.666,7.339,4.04,9.825,7.342"/>
				<path style="fill:#824229;" d="M371.97,140.558c-8.604,3.826-14.377,11.283-16.563,20.793
					c-1.479,6.432-0.219,14.754,3.825,20.202c5.499,7.408,13.48,8.438,20.533,3.432c4.33-3.073,8.069-9.198,12.598-12.682
					c5.869-4.515,11.023-9.524,10.128-17.733c-0.584-5.351-4.498-11.527-9.465-13.909
					C385.938,137.262,378.476,137.665,371.97,140.558z"/>
				<path style="fill:#160F16;" d="M412.082,142.629c-2.741-3.605-6.919-4.877-10.14-7.844c-3.165-2.916-5.192-6.849-8.429-9.699
					c-6.969-6.138-19.431-7.443-28.143-5.023c-4.208,1.169-7.954,3.945-10.94,7.064c-4.268,4.458-7.358,10.098-8.481,16.167
					c-0.801,4.33-0.606,8.774-0.408,13.173c0.013,0.296,0.038,0.619,0.242,0.833c0.14,0.146,0.34,0.214,0.533,0.275
					c5.773,1.822,12.18,1.564,17.788-0.719c2.209-0.899,3.892-2.56,5.368-4.456c4.58,5.622,21.022,2.283,29.285,3.592
					c1.189,1.439,2.642-0.226,2.405,4.095c-0.193,3.52-2.556,6.483-4.995,9.049c4.337-0.079,9.166-1.537,12.712-4.034
					c1.862-1.312,3.633-2.829,4.827-4.769c1.109-1.802,1.672-3.905,1.831-6.015C415.849,150.176,414.596,145.935,412.082,142.629z"
					/>
				<path style="fill:none;stroke:#000000;stroke-miterlimit:10;" d="M385.012,161.842c1.661-0.082,3.362-0.078,4.941,0.448
					c1.578,0.526,3.033,1.656,3.572,3.23"/>
				<path d="M388.551,171.98c-0.815,0.938-1.947,1.288-2.528,0.783c-0.581-0.505-0.392-1.675,0.423-2.612
					c0.815-0.938,1.947-1.288,2.528-0.783C389.555,169.873,389.366,171.042,388.551,171.98z"/>
				<path style="fill:none;stroke:#000000;stroke-miterlimit:10;" d="M377.296,177.459c-0.251,1.014-0.459,2.083-0.196,3.094
					c0.264,1.011,1.134,1.937,2.179,1.926"/>
				<path style="fill:#824229;" d="M388.543,174.486c-1.302,1.445-1.845,3.4-2.348,5.279c-0.229,0.859-0.179,1.574-1.009,2.021
					c-0.765,0.412-1.547,0.292-2.275-0.152c-0.483-0.295-0.918-0.671-1.43-0.912"/>
				<path style="fill:#FD74AB;" d="M365.149,120.18l-5.829,1.985c9.094,25.201,32.18,39.681,40.684,42.582
					c0,0,4.611-5.7,5.284-8.755C379.944,139.557,365.149,120.18,365.149,120.18z"/>
				<path style="fill:none;stroke:#000000;stroke-miterlimit:10;" d="M360.954,184.029c-3.452-3.179-4.742-7.667-5.908-12.09"/>
				<path style="fill:none;stroke:#231F20;stroke-miterlimit:10;" d="M359.421,122.798c1.895-1.163,3.995-1.991,6.174-2.434"/>
				<path style="fill:none;stroke:#231F20;stroke-miterlimit:10;" d="M338.345,120.674c5.505-1.72,11.428-2.363,17.179-1.857
					c2.777,0.244,5.556,0.896,7.989,2.258"/>
				<path style="fill:none;stroke:#231F20;stroke-miterlimit:10;" d="M349.095,107.615c8.905,2.626,15.169,8.747,16.49,12.75"/>
				
					<ellipse transform="matrix(0.6488 -0.761 0.761 0.6488 12.9302 298.7512)" style="fill:#160F16;" cx="330.113" cy="135.368" rx="18.747" ry="18.747"/>
				<path style="fill:none;stroke:#231F20;stroke-miterlimit:10;" d="M364.264,120.609c8.888,14.41,23.45,27.676,38.326,36.049"/>
				<g>
					<line style="fill:none;stroke:#F9BF64;stroke-miterlimit:10;" x1="368.213" y1="151.792" x2="382.721" y2="165.592"/>
					<path style="fill:none;stroke:#F9BF64;stroke-miterlimit:10;" d="M391.593,174.326c-2.082,2.854-6.017,3.529-8.789,1.507
						c-2.772-2.022-3.331-5.975-1.249-8.829c2.082-2.854,6.017-3.529,8.789-1.507C393.116,167.519,393.675,171.472,391.593,174.326z
						"/>
				</g>
				<g>
					<path style="fill:#824229;" d="M371.025,156.25c0.147-3.248-1.502-6.893-4.989-7.511c-3.739-0.663-7.171,2.587-8.659,5.703
						c-1.619,3.391-2.561,8.778,1.055,11.283c2.024,1.402,4.914,1.279,6.478-0.747"/>
					<path style="fill:none;stroke:#000000;stroke-miterlimit:10;" d="M356.089,158.552c-1.248,6.301,4.56,10.209,8.822,6.425"/>
					<path style="fill:none;stroke:#000000;stroke-miterlimit:10;" d="M371.025,156.25c0.147-3.248-1.502-6.893-4.989-7.511"/>
					<line style="fill:none;stroke:#000000;stroke-miterlimit:10;" x1="365.892" y1="161.521" x2="362.919" y2="152.793"/>
				</g>
			</g>
			<g>
				<path style="fill:#F9BF64;" d="M321.082,166.467c-16.799,1.002-30.281,9.987-39.996,22.834
					c-5.901,7.803-12.97,18.083-16.793,26.93c-4.999,11.568-17.3,21.399-21.031,31.02c-0.783,2.019,1.881,8.658,1.881,8.658
					l62.498,18.716c0,0,3.261-1.076,4.29-1.963c1.029-0.887,0.296-4.463,2.39-6.608c2.094-2.145,6.645-8.771,6.645-8.771
					s22.71-3.068,26.509-18.088c3.065-12.117,2.094-40.183,2.094-40.183L321.082,166.467z"/>
				<path style="fill:none;stroke:#231F20;stroke-miterlimit:10;" d="M321.267,257.13c-2.085,0.035-4.161,0.468-6.086,1.269"/>
				<g>
					<polygon style="fill:#EF750D;" points="456.844,221.795 461.442,220.081 483.082,267.448 478.484,269.162 					"/>
					<path style="fill:#FFD797;" d="M457.084,216.431L457.084,216.431c1.27-0.473,2.988,0.652,3.838,2.512l0.52,1.138l-4.598,1.714
						l-0.52-1.138C455.474,218.797,455.814,216.904,457.084,216.431z"/>
					<line style="fill:none;stroke:#231F20;stroke-miterlimit:10;" x1="461.442" y1="220.081" x2="456.844" y2="221.795"/>
					<polyline style="fill:#F9E4CA;" points="483.082,267.448 482.674,272.443 478.484,269.162 					"/>
					<polygon style="fill:#292944;" points="482.674,272.443 482.855,270.224 480.812,270.985 					"/>
				</g>
				<g>
					<path style="fill:#824229;" d="M470.388,261.204c1.112-0.508,2.119-1.05,3.022-1.87c0.37-0.336,0.624-0.759,0.786-1.229
						c0.042-0.121,0.583-1.798,0.536-1.802c0.986,0.629,2.172,0.695,3.349,0.389c0.979-0.254,2.136-0.869,2.601-1.822
						c0.448-0.917-0.099-1.858-0.783-2.475c-1.052-0.951-2.256-1.754-3.155-2.864c-0.993-1.226-1.841-2.578-2.843-3.809
						c-1.125-1.382-2.528-2.536-4.109-3.36c-1.632-0.85-3.469-1.739-5.286-2.075c-3.169-0.587-6.447-0.7-9.579,0.011
						c-5.698,1.294-10.699,4.647-16.569,5.45c-1.81,0.247-3.63,0.396-5.454,0.48c-2.689,0.124-8.441,0.069-8.547,0.203
						c-0.089,0.112,1.305,16.289,2.49,24.164c1.486,0.089,2.972,0.177,4.458,0.266c1.321,0.079,2.664,0.162,3.913,0.622
						c1.009,0.372,1.923,0.978,2.903,1.428c5.238,2.405,11.582,0.76,16.038-2.482c0.346-0.252,0.696-0.518,1.104-0.625
						c0.37-0.097,0.762-0.055,1.146-0.013c0.962,0.106,1.898-0.067,2.844-0.017c1.129,0.06,2.197,0.654,3.345,0.742
						c1.318,0.101,2.933-0.218,3.629-1.46c0.471-0.842,0.525-1.856,0.432-2.816c1.321-0.047,2.825-0.405,3.429-1.581
						C470.622,263.622,470.239,262.362,470.388,261.204z"/>
					<path style="fill:none;stroke:#000000;stroke-miterlimit:10;" d="M455.724,260.84c4.209,0.53,8.273,2.334,11.556,5.13"/>
					<path style="fill:none;stroke:#000000;stroke-miterlimit:10;" d="M458.325,253.104c2.477,0.385,4.682,1.685,6.674,3.146
						c1.948,1.429,4.03,2.92,5.389,4.953"/>
					<path style="fill:none;stroke:#000000;stroke-miterlimit:10;" d="M460.999,245.693c6.072,0.86,10.984,5.48,13.732,10.61"/>
					<path style="fill:none;stroke:#000000;stroke-miterlimit:10;" d="M477.968,250.835c-0.466,0.302-0.933,0.604-1.399,0.906
						c-0.322,0.209-0.665,0.442-0.797,0.803c-0.147,0.401,0.023,0.876,0.348,1.153c0.325,0.278,0.775,0.376,1.202,0.343
						c0.426-0.033,0.834-0.187,1.222-0.366c0.589-0.271,1.671-0.991,1.671-0.991"/>
				</g>
				<path style="fill:#F9BF64;" d="M301.918,171.546c9.161-5.831,26.261-10.836,35.099-5.831c6.041,3.421,9.826,8.758,12.697,12.674
					c9.776,13.335,22.777,49.822,30.108,64.642l52.998,2.662l3.348,33.235c0,0-49.935,4.113-74.866,3.342
					c-12.522-0.387-19.992-9.882-28.401-25.337c-8.41-15.455-19.451-42.974-19.451-42.974"/>
				<line style="fill:none;stroke:#231F20;stroke-miterlimit:10;" x1="419.232" y1="245.093" x2="422.725" y2="279.823"/>
				<path style="fill:none;stroke:#231F20;stroke-miterlimit:10;" d="M379.928,243.281c-7.147-1.058-14.595,0.002-21.164,3.011"/>
				<path style="fill:none;stroke:#231F20;stroke-miterlimit:10;" d="M331.546,254.386c0,0-5.066-10.855-7.286-16.435
					c-3.309-8.318-7.106-16.428-11.363-24.271c-0.72-1.327-2.517-1.035-3.768-1.881"/>
				<circle style="fill:#FFD38D;" cx="340.842" cy="227.191" r="2.497"/>
				<circle style="fill:#FFD38D;" cx="316.489" cy="235.971" r="2.497"/>
				<circle style="fill:#FFD38D;" cx="262.137" cy="242.882" r="2.497"/>
				<circle style="fill:#FFD38D;" cx="284.113" cy="230.523" r="2.497"/>
				<circle style="fill:#FFD38D;" cx="282.441" cy="260.84" r="2.497"/>
				<circle style="fill:#FFD38D;" cx="372.654" cy="253.495" r="2.497"/>
				<circle style="fill:#FFD38D;" cx="397.769" cy="249.795" r="2.497"/>
				<circle style="fill:#FFD38D;" cx="431.188" cy="272.551" r="2.497"/>
				<circle style="fill:#FFD38D;" cx="411.886" cy="263.405" r="2.497"/>
				<circle style="fill:#FFD38D;" cx="391.04" cy="274.625" r="2.497"/>
				<circle style="fill:#FFD38D;" cx="350.928" cy="204.52" r="2.497"/>
				<circle style="fill:#FFD38D;" cx="304.415" cy="187.688" r="2.497"/>
				<circle style="fill:#FFD38D;" cx="334.477" cy="178.262" r="2.497"/>
				<circle style="fill:#FFD38D;" cx="343.339" cy="252.441" r="2.497"/>
				<circle style="fill:#FFD38D;" cx="367.407" cy="230.523" r="2.497"/>
				<circle style="fill:#FFD38D;" cx="358" cy="270.224" r="2.497"/>
				<circle style="fill:#FFD38D;" cx="322.834" cy="203.118" r="2.497"/>
				<circle style="fill:#FFD38D;" cx="279.945" cy="207.017" r="2.497"/>
				<circle style="fill:#FFD38D;" cx="303.129" cy="251.549" r="2.497"/>
				<circle style="fill:#FFD38D;" cx="308.869" cy="263.405" r="2.497"/>
			</g>
		</g>
		<g>
			<rect x="346.743" y="282.271" style="fill:#F9BEBD;" width="264.433" height="8.173"/>
			<g>
				<polyline style="fill:none;stroke:#231F20;stroke-width:1.5;stroke-miterlimit:10;" points="331.98,470.878 349.714,290.445 
					608.205,290.445 625.939,470.878 				"/>
			</g>
		</g>
		<g>
			<path style="fill:#98A48D;" d="M526.912,257.179c-6.931,0-12.55,5.619-12.55,12.55c0,6.931,5.619,12.55,12.55,12.55h69.608v-25.1
				H526.912z"/>
			<path style="fill:#6D8257;" d="M585.478,257.179c-6.931,0-12.55,5.619-12.55,12.55c0,6.931,5.619,12.55,12.55,12.55h30.426v-25.1
				H585.478z"/>
			<path style="fill:#FFFFFF;" d="M586.32,261.83c-4.363,0-7.899,3.537-7.899,7.899c0,4.363,3.536,7.899,7.899,7.899h29.584V261.83
				H586.32z"/>
			<line style="fill:none;stroke:#292944;stroke-miterlimit:10;" x1="578.683" y1="272.873" x2="591.528" y2="272.873"/>
			<line style="fill:none;stroke:#292944;stroke-miterlimit:10;" x1="578.683" y1="267.155" x2="615.904" y2="267.155"/>
			<path style="fill:none;stroke:#292944;stroke-miterlimit:10;" d="M571.504,261.818c-4.21,5.179-4.045,12.119,0.412,17.352"/>
			<path style="fill:none;stroke:#292944;stroke-miterlimit:10;" d="M565.823,261.818c-4.209,5.179-4.045,12.119,0.412,17.352"/>
			<path style="fill:none;stroke:#292944;stroke-miterlimit:10;" d="M526.119,261.818c-4.21,5.179-4.045,12.119,0.412,17.352"/>
			<line style="fill:none;stroke:#292944;stroke-miterlimit:10;" x1="597.824" y1="272.873" x2="615.903" y2="272.873"/>
		</g>
		<g>
			<g>
				<rect x="553.386" y="301.578" style="fill:#FFFFFF;" width="75.121" height="73.243"/>
				<polygon style="fill:#EEF6FF;" points="586.357,319.533 561.7,319.533 565.614,330.433 				"/>
				<line style="fill:none;stroke:#B9D0EA;stroke-miterlimit:10;" x1="556.832" y1="319.533" x2="590.946" y2="319.533"/>
				<line style="fill:none;stroke:#B9D0EA;stroke-miterlimit:10;" x1="579.34" y1="330.433" x2="628.273" y2="330.433"/>
				<line style="fill:none;stroke:#B9D0EA;stroke-miterlimit:10;" x1="609.819" y1="362.48" x2="628.434" y2="362.48"/>
				<line style="fill:none;stroke:#B9D0EA;stroke-miterlimit:10;" x1="595.914" y1="319.533" x2="628.506" y2="319.533"/>
				<polygon style="fill:#EEF6FF;" points="623.08,308.13 588.342,308.13 613.547,317.989 				"/>
				<line style="fill:none;stroke:#B9D0EA;stroke-miterlimit:10;" x1="575.376" y1="308.13" x2="628.506" y2="308.13"/>
			</g>
			<path style="fill:#F9BEBD;" d="M648.022,386.313H526.216l0,0c0-6.347,5.145-11.492,11.492-11.492h98.822
				C642.877,374.821,648.022,379.966,648.022,386.313L648.022,386.313z"/>
			<polyline style="fill:none;stroke:#231F20;stroke-width:1.5;stroke-miterlimit:10;" points="516.056,470.878 526.596,386.502 
				647.48,386.502 658.02,470.878 			"/>
			<g>
				<path style="fill:#EF750D;" d="M551.24,351.488c-6.443,0-11.666,5.223-11.666,11.666s5.223,11.666,11.666,11.666h64.708v-23.333
					H551.24z"/>
				<path style="fill:none;stroke:#292944;stroke-miterlimit:10;" d="M597.551,351.488c-4.66,0-8.438,5.223-8.438,11.666
					s3.778,11.666,8.438,11.666"/>
				<path style="fill:none;stroke:#292944;stroke-miterlimit:10;" d="M552.866,351.488c-4.66,0-8.438,5.223-8.438,11.666
					s3.778,11.666,8.438,11.666"/>
				<path style="fill:#D3531A;" d="M605.683,351.488c-6.443,0-11.666,5.223-11.666,11.666s5.223,11.666,11.666,11.666h30.366
					v-23.333H605.683z"/>
				<path style="fill:#FFFFFF;" d="M606.466,355.812c-4.056,0-7.343,3.288-7.343,7.343s3.287,7.343,7.343,7.343h29.583v-14.686
					H606.466z"/>
				<line style="fill:none;stroke:#292944;stroke-miterlimit:10;" x1="599.366" y1="366.077" x2="636.048" y2="366.077"/>
				<line style="fill:none;stroke:#292944;stroke-miterlimit:10;" x1="599.366" y1="360.762" x2="609.986" y2="360.762"/>
				<path style="fill:none;stroke:#292944;stroke-miterlimit:10;" d="M560.191,354.399c0.584-0.181,1.285-0.295,1.754,0.098
					c0.226,0.19,0.357,0.473,0.419,0.761c0.213,0.987-0.31,1.975-0.881,2.807c-0.882,1.283-7.746,8.909-9.131,4.747
					c-0.494-1.485,1.697-4.056,2.608-5.049C556.378,356.218,558.182,355.02,560.191,354.399z"/>
				<path style="fill:none;stroke:#292944;stroke-miterlimit:10;" d="M572.113,355.156c0.485-0.128,1.063-0.198,1.433,0.141
					c0.178,0.163,0.276,0.399,0.317,0.637c0.141,0.816-0.321,1.607-0.818,2.269c-0.766,1.021-6.651,7.032-7.642,3.574
					c-0.354-1.233,1.529-3.264,2.31-4.046C568.928,356.515,570.447,355.596,572.113,355.156z"/>
				<path style="fill:none;stroke:#292944;stroke-miterlimit:10;" d="M560.526,364.044c-0.498-0.011-1.056,0.035-1.388,0.407
					c-0.556,0.622-0.079,1.601,0.456,2.241c1.327,1.587,10.318,8.391,10.957,3.325c0.209-1.653-1.877-2.716-3.021-3.507
					C565.429,365.056,563.113,364.101,560.526,364.044z"/>
				<path style="fill:none;stroke:#292944;stroke-miterlimit:10;" d="M573.091,363.25c-0.326-0.077-0.699-0.125-0.969,0.073
					c-0.452,0.331-0.276,1.04-0.014,1.536c0.649,1.228,5.602,6.955,6.732,3.717c0.369-1.057-0.853-2.046-1.494-2.726
					C576.169,364.602,574.782,363.65,573.091,363.25z"/>
				<path style="fill:none;stroke:#292944;stroke-miterlimit:10;" d="M577.152,360.742c-0.291,0.166-0.596,0.385-0.659,0.714
					c-0.106,0.55,0.507,0.949,1.036,1.133c1.312,0.456,8.84,1.271,7.459-1.868c-0.451-1.025-2.019-0.916-2.951-0.977
					C580.325,359.633,578.661,359.882,577.152,360.742z"/>
				<line style="fill:none;stroke:#292944;stroke-miterlimit:10;" x1="615.837" y1="360.762" x2="636.048" y2="360.762"/>
			</g>
			<g>
				<path style="fill:#A2ACDB;" d="M614.012,339.822c3.222,0,5.833,2.612,5.833,5.833s-2.612,5.833-5.833,5.833h-56.119v-11.666
					H614.012z"/>
				<path style="fill:#BFC4E8;" d="M563.026,339.822c3.222,0,5.833,2.612,5.833,5.833s-2.612,5.833-5.833,5.833h-28.745v-11.666
					H563.026z"/>
				<path style="fill:#FFFFFF;" d="M562.635,341.983c2.028,0,3.672,1.644,3.672,3.672s-1.644,3.671-3.672,3.671h-28.354v-7.343
					H562.635z"/>
				<line style="fill:none;stroke:#292944;stroke-miterlimit:10;" x1="566.184" y1="347.116" x2="534.281" y2="347.116"/>
				<line style="fill:none;stroke:#292944;stroke-miterlimit:10;" x1="546.266" y1="344.459" x2="534.281" y2="344.459"/>
				<line style="fill:none;stroke:#292944;stroke-miterlimit:10;" x1="550.707" y1="344.458" x2="566.306" y2="344.458"/>
				<path style="fill:none;stroke:#292944;stroke-miterlimit:10;" d="M570.263,341.175c1.72,2.795,1.612,6.605-0.264,9.298"/>
				<path style="fill:none;stroke:#292944;stroke-miterlimit:10;" d="M613.771,341.175c1.72,2.795,1.612,6.605-0.264,9.298"/>
				<path style="fill:none;stroke:#292944;stroke-miterlimit:10;" d="M574.532,341.175c1.72,2.795,1.612,6.605-0.264,9.298"/>
			</g>
		</g>
		
			<line style="fill:none;stroke:#231F20;stroke-width:1.5;stroke-miterlimit:10;" x1="55.084" y1="470.878" x2="694.916" y2="470.878"/>
		<g>
			<g>
				
					<line style="fill:none;stroke:#8C7E56;stroke-width:1.5;stroke-miterlimit:10;" x1="484.612" y1="128.258" x2="484.612" y2="131.635"/>
				
					<line style="fill:none;stroke:#8C7E56;stroke-width:1.5;stroke-miterlimit:10;" x1="484.612" y1="135.732" x2="484.612" y2="139.109"/>
				
					<line style="fill:none;stroke:#8C7E56;stroke-width:1.5;stroke-miterlimit:10;" x1="490.037" y1="133.684" x2="486.66" y2="133.684"/>
				
					<line style="fill:none;stroke:#8C7E56;stroke-width:1.5;stroke-miterlimit:10;" x1="482.563" y1="133.684" x2="479.187" y2="133.684"/>
			</g>
			<g>
				
					<line style="fill:none;stroke:#8C7E56;stroke-width:1.5;stroke-miterlimit:10;" x1="508.358" y1="89.258" x2="508.358" y2="92.634"/>
				
					<line style="fill:none;stroke:#8C7E56;stroke-width:1.5;stroke-miterlimit:10;" x1="508.358" y1="96.731" x2="508.358" y2="100.108"/>
				
					<line style="fill:none;stroke:#8C7E56;stroke-width:1.5;stroke-miterlimit:10;" x1="513.783" y1="94.683" x2="510.406" y2="94.683"/>
				
					<line style="fill:none;stroke:#8C7E56;stroke-width:1.5;stroke-miterlimit:10;" x1="506.309" y1="94.683" x2="502.932" y2="94.683"/>
			</g>
			<g>
				
					<line style="fill:none;stroke:#8C7E56;stroke-width:1.5;stroke-miterlimit:10;" x1="376.05" y1="46.204" x2="376.05" y2="49.581"/>
				
					<line style="fill:none;stroke:#8C7E56;stroke-width:1.5;stroke-miterlimit:10;" x1="376.05" y1="53.678" x2="376.05" y2="57.055"/>
				
					<line style="fill:none;stroke:#8C7E56;stroke-width:1.5;stroke-miterlimit:10;" x1="381.475" y1="51.63" x2="378.098" y2="51.63"/>
				
					<line style="fill:none;stroke:#8C7E56;stroke-width:1.5;stroke-miterlimit:10;" x1="374.001" y1="51.63" x2="370.625" y2="51.63"/>
			</g>
			<g>
				
					<line style="fill:none;stroke:#8C7E56;stroke-width:1.5;stroke-miterlimit:10;" x1="273.5" y1="113.224" x2="273.5" y2="116.6"/>
				
					<line style="fill:none;stroke:#8C7E56;stroke-width:1.5;stroke-miterlimit:10;" x1="273.5" y1="120.697" x2="273.5" y2="124.074"/>
				
					<line style="fill:none;stroke:#8C7E56;stroke-width:1.5;stroke-miterlimit:10;" x1="278.925" y1="118.649" x2="275.548" y2="118.649"/>
				
					<line style="fill:none;stroke:#8C7E56;stroke-width:1.5;stroke-miterlimit:10;" x1="271.451" y1="118.649" x2="268.074" y2="118.649"/>
			</g>
			<g>
				
					<line style="fill:none;stroke:#8C7E56;stroke-width:1.5;stroke-miterlimit:10;" x1="192.278" y1="255.414" x2="192.278" y2="258.791"/>
				
					<line style="fill:none;stroke:#8C7E56;stroke-width:1.5;stroke-miterlimit:10;" x1="192.278" y1="262.888" x2="192.278" y2="266.265"/>
				
					<line style="fill:none;stroke:#8C7E56;stroke-width:1.5;stroke-miterlimit:10;" x1="197.703" y1="260.84" x2="194.327" y2="260.84"/>
				
					<line style="fill:none;stroke:#8C7E56;stroke-width:1.5;stroke-miterlimit:10;" x1="190.23" y1="260.84" x2="186.853" y2="260.84"/>
			</g>
			<g>
				
					<line style="fill:none;stroke:#8C7E56;stroke-width:1.5;stroke-miterlimit:10;" x1="387.9" y1="213.634" x2="387.9" y2="217.011"/>
				
					<line style="fill:none;stroke:#8C7E56;stroke-width:1.5;stroke-miterlimit:10;" x1="387.9" y1="221.108" x2="387.9" y2="224.484"/>
				
					<line style="fill:none;stroke:#8C7E56;stroke-width:1.5;stroke-miterlimit:10;" x1="393.325" y1="219.059" x2="389.948" y2="219.059"/>
				
					<line style="fill:none;stroke:#8C7E56;stroke-width:1.5;stroke-miterlimit:10;" x1="385.852" y1="219.059" x2="382.475" y2="219.059"/>
			</g>
			<path style="fill:none;stroke:#FD74AB;stroke-width:1.5;stroke-miterlimit:10;" d="M412.223,104.872
				c0,1.792-1.453,3.245-3.245,3.245c-1.792,0-3.245-1.453-3.245-3.245c0-1.792,1.453-3.245,3.245-3.245
				C410.77,101.627,412.223,103.08,412.223,104.872z"/>
			<path style="fill:none;stroke:#FD74AB;stroke-width:1.5;stroke-miterlimit:10;" d="M437.979,308.394
				c0,1.792-1.453,3.245-3.245,3.245c-1.792,0-3.245-1.453-3.245-3.245c0-1.792,1.453-3.245,3.245-3.245
				C436.526,305.149,437.979,306.602,437.979,308.394z"/>
			<path style="fill:none;stroke:#FD74AB;stroke-width:1.5;stroke-miterlimit:10;" d="M271.858,162.573
				c0,1.792-1.453,3.245-3.245,3.245c-1.792,0-3.245-1.453-3.245-3.245s1.453-3.245,3.245-3.245
				C270.405,159.328,271.858,160.781,271.858,162.573z"/>
			<path style="fill:none;stroke:#FD74AB;stroke-width:1.5;stroke-miterlimit:10;" d="M327.287,72.187
				c0,3.156-2.558,5.714-5.714,5.714c-3.156,0-5.714-2.558-5.714-5.714c0-3.156,2.558-5.714,5.714-5.714
				C324.728,66.473,327.287,69.031,327.287,72.187z"/>
			<path style="fill:none;stroke:#FD74AB;stroke-width:1.5;stroke-miterlimit:10;" d="M449.858,159.328
				c0,3.156-2.558,5.714-5.714,5.714c-3.156,0-5.714-2.558-5.714-5.714c0-3.156,2.558-5.714,5.714-5.714
				C447.3,153.614,449.858,156.172,449.858,159.328z"/>
		</g>
	</g>
</g>
</svg>
